<svg xmlns="http://www.w3.org/2000/svg" width="8.176" height="10.104" viewBox="0 0 8.176 10.104">
    <defs>
        <style>
            .cls-1{fill:#338ffa}
        </style>
    </defs>
    <path id="Path_417" d="M411.084 234.41a4.1 4.1 0 0 0-4.091 4.1 3.509 3.509 0 0 0 .073.752.763.763 0 0 0 .015.124c.454 2.039 3.529 4.922 3.555 4.946a.619.619 0 0 0 .448.181.663.663 0 0 0 .439-.172l.034-.033c.725-.711 3.123-3.165 3.515-4.889l.007-.042a4.1 4.1 0 0 0-3.995-4.967zm-.008 1.281a2.814 2.814 0 0 1 2.811 2.811 3.182 3.182 0 0 1-.07.654v.005c-.284 1.185-2.04 3.087-2.733 3.8-.7-.719-2.474-2.633-2.738-3.782a.3.3 0 0 0-.017-.115 3.027 3.027 0 0 1-.057-.564 2.81 2.81 0 0 1 2.805-2.809z" class="cls-1" data-name="Path 417" transform="translate(-406.993 -234.41)"/>
</svg>
