<svg xmlns="http://www.w3.org/2000/svg" width="10.943" height="10.945" viewBox="0 0 10.943 10.945">
    <defs>
        <style>
            .cls-1{fill:none}.cls-2,.cls-3{stroke:none}.cls-3{fill:#338ffa}
        </style>
    </defs>
    <g id="Shape_7" class="cls-1" data-name="Shape 7">
        <path d="M50.539 919.742a.413.413 0 0 1-.127.362l-1.2 1.195a.678.678 0 0 1-.213.154.876.876 0 0 1-.258.081h-.172a4.155 4.155 0 0 1-.556-.059 4.227 4.227 0 0 1-.941-.29 7.886 7.886 0 0 1-1.262-.693 9.4 9.4 0 0 1-1.5-1.267 9.914 9.914 0 0 1-1.049-1.195 8.507 8.507 0 0 1-.669-1.054 5.684 5.684 0 0 1-.38-.878 4.673 4.673 0 0 1-.172-.679 2.245 2.245 0 0 1-.036-.448l.009-.181a.881.881 0 0 1 .081-.258.678.678 0 0 1 .154-.213l1.2-1.2a.4.4 0 0 1 .289-.127.337.337 0 0 1 .208.068.628.628 0 0 1 .154.167l.968 1.837a.44.44 0 0 1 .045.317.564.564 0 0 1-.154.289l-.443.444a.149.149 0 0 0-.032.059.225.225 0 0 0-.014.068 1.635 1.635 0 0 0 .163.434 3.98 3.98 0 0 0 .335.529 5.876 5.876 0 0 0 .642.72 5.991 5.991 0 0 0 .724.647 4.175 4.175 0 0 0 .529.339 1.406 1.406 0 0 0 .326.131l.113.023a.215.215 0 0 0 .059-.014.15.15 0 0 0 .059-.032l.516-.525a.554.554 0 0 1 .38-.145.472.472 0 0 1 .244.054h.009l1.746 1.032a.456.456 0 0 1 .225.308z" class="cls-2" transform="translate(-40.799 -911.798)"/>
        <path d="M48.568 921.543a1.309 1.309 0 0 0 .171-.009.876.876 0 0 0 .258-.081.678.678 0 0 0 .213-.154l1.203-1.195a.413.413 0 0 0 .126-.362.456.456 0 0 0-.226-.299l-1.745-1.031h-.01a.472.472 0 0 0-.244-.055.554.554 0 0 0-.38.145l-.515.525a.15.15 0 0 1-.059.032.215.215 0 0 1-.059.013l-.113-.022a1.405 1.405 0 0 1-.325-.131 4.175 4.175 0 0 1-.53-.34 5.99 5.99 0 0 1-.723-.647 5.876 5.876 0 0 1-.642-.72 3.981 3.981 0 0 1-.335-.529 1.635 1.635 0 0 1-.163-.434c0-.018.005-.041.014-.068a.149.149 0 0 1 .032-.059l.443-.444a.564.564 0 0 0 .154-.289.44.44 0 0 0-.046-.317l-.967-1.837a.627.627 0 0 0-.154-.167.337.337 0 0 0-.208-.068.398.398 0 0 0-.29.126l-1.203 1.204a.678.678 0 0 0-.153.213.88.88 0 0 0-.082.258l-.009.18c-.006.11.006.259.036.449s.088.416.172.679c.085.262.211.554.38.877.169.323.392.675.67 1.055.277.38.627.778 1.049 1.194.53.537 1.03.96 1.501 1.267.47.308.89.539 1.262.693.37.154.684.25.94.29.257.039.442.058.557.058m0 1.2a5.09 5.09 0 0 1-.739-.072c-.354-.055-.752-.175-1.218-.368a8.974 8.974 0 0 1-1.46-.797c-.536-.35-1.105-.83-1.692-1.422a11.138 11.138 0 0 1-1.17-1.336 9.734 9.734 0 0 1-.763-1.206 6.801 6.801 0 0 1-.459-1.066 5.797 5.797 0 0 1-.215-.858 3.312 3.312 0 0 1-.042-.838v-.064l.012-.085c.03-.206.093-.411.189-.61.104-.216.24-.402.402-.556l1.187-1.187a1.602 1.602 0 0 1 1.138-.479c.339 0 .66.107.929.309.175.131.325.294.445.483l.026.041.023.044.963 1.827c.19.347.246.738.163 1.133-.063.3-.2.576-.397.803l.05.07c.076.104.225.288.51.566l.009.009.009.01a4.778 4.778 0 0 0 .624.553l.015-.014.03-.027c.33-.294.737-.449 1.177-.449.158 0 .309.019.45.055h.132l.282.167 1.746 1.031.01.007.012.007c.407.253.68.637.77 1.082l.008.04.005.041a1.623 1.623 0 0 1-.468 1.366l-1.189 1.18c-.153.162-.339.297-.553.4-.199.096-.404.16-.611.19l-.084.011h-.032c-.068.006-.141.01-.224.01z" class="cls-3" transform="translate(-40.799 -911.798)"/>
    </g>
</svg>
