<svg xmlns="http://www.w3.org/2000/svg" width="8.176" height="10.104"><path d="M4.091 0A4.1 4.1 0 000 4.1a3.509 3.509 0 00.073.752.763.763 0 00.015.124c.454 2.039 3.529 4.922 3.555 4.946a.619.619 0 00.448.181.663.663 0 00.439-.172l.034-.033c.725-.711 3.123-3.165 3.515-4.889l.007-.042A4.1 4.1 0 004.091 0zm-.008 1.281a2.814 2.814 0 012.811 2.811 3.182 3.182 0 01-.07.654v.005c-.284 1.185-2.04 3.087-2.733 3.8-.7-.719-2.474-2.633-2.738-3.782a.3.3 0 00-.017-.115 3.027 3.027 0 01-.057-.564 2.81 2.81 0 012.805-2.809z" data-name="Path 417" fill="#338ffa"/></svg>