<svg xmlns="http://www.w3.org/2000/svg" width="10.943" height="10.945"><g data-name="Shape 7" fill="none"><path d="M9.74 7.944a.413.413 0 01-.127.362l-1.2 1.195a.678.678 0 01-.213.154.876.876 0 01-.258.081H7.77a4.155 4.155 0 01-.556-.059 4.227 4.227 0 01-.941-.29 7.886 7.886 0 01-1.262-.693 9.4 9.4 0 01-1.5-1.267 9.914 9.914 0 01-1.049-1.195 8.507 8.507 0 01-.669-1.054 5.684 5.684 0 01-.38-.878 4.673 4.673 0 01-.172-.679 2.245 2.245 0 01-.036-.448l.009-.181a.881.881 0 01.081-.258.678.678 0 01.154-.213l1.2-1.2a.4.4 0 01.289-.127.337.337 0 01.208.068.628.628 0 01.154.167l.968 1.837a.44.44 0 01.045.317.564.564 0 01-.154.289l-.443.444a.149.149 0 00-.032.059.225.225 0 00-.014.068 1.635 1.635 0 00.163.434 3.98 3.98 0 00.335.529 5.876 5.876 0 00.642.72 5.991 5.991 0 00.724.647 4.175 4.175 0 00.529.339 1.406 1.406 0 00.326.131l.113.023a.215.215 0 00.059-.014.15.15 0 00.059-.032l.516-.525a.554.554 0 01.38-.145.472.472 0 01.244.054h.009l1.746 1.032a.456.456 0 01.225.308z"/><path d="M7.769 9.745a1.309 1.309 0 00.171-.009.876.876 0 00.258-.081.678.678 0 00.213-.154l1.203-1.195a.413.413 0 00.126-.362.456.456 0 00-.226-.299L7.769 6.614h-.01a.472.472 0 00-.244-.055.554.554 0 00-.38.145l-.515.525a.15.15 0 01-.059.032.215.215 0 01-.059.013l-.113-.022a1.405 1.405 0 01-.325-.131 4.175 4.175 0 01-.53-.34 5.99 5.99 0 01-.723-.647 5.876 5.876 0 01-.642-.72 3.981 3.981 0 01-.335-.529 1.635 1.635 0 01-.163-.434c0-.018.005-.041.014-.068a.149.149 0 01.032-.059l.443-.444a.564.564 0 00.154-.289.44.44 0 00-.046-.317l-.967-1.837a.627.627 0 00-.154-.167.337.337 0 00-.208-.068.398.398 0 00-.29.126L1.446 2.532a.678.678 0 00-.153.213.88.88 0 00-.082.258l-.009.18c-.006.11.006.259.036.449s.088.416.172.679c.085.262.211.554.38.877.169.323.392.675.67 1.055.277.38.627.778 1.049 1.194.53.537 1.03.96 1.501 1.267.47.308.89.539 1.262.693.37.154.684.25.94.29.257.039.442.058.557.058m0 1.2a5.09 5.09 0 01-.739-.072c-.354-.055-.752-.175-1.218-.368a8.974 8.974 0 01-1.46-.797c-.536-.35-1.105-.83-1.692-1.422A11.138 11.138 0 011.49 6.95a9.734 9.734 0 01-.763-1.206 6.801 6.801 0 01-.459-1.066 5.797 5.797 0 01-.215-.858 3.312 3.312 0 01-.042-.838v-.064l.012-.085a2.1 2.1 0 01.189-.61c.104-.216.24-.402.402-.556L1.801.48A1.602 1.602 0 012.939.001c.339 0 .66.107.929.309.175.131.325.294.445.483l.026.041.023.044.963 1.827c.19.347.246.738.163 1.133-.063.3-.2.576-.397.803l.05.07c.076.104.225.288.51.566l.009.009.009.01a4.778 4.778 0 00.624.553l.015-.014.03-.027c.33-.294.737-.449 1.177-.449.158 0 .309.019.45.055h.132l.282.167 1.746 1.031.01.007.012.007c.407.253.68.637.77 1.082l.008.04.005.041a1.623 1.623 0 01-.468 1.366l-1.189 1.18a1.873 1.873 0 01-.553.4c-.199.096-.404.16-.611.19l-.084.011h-.032a2.51 2.51 0 01-.224.01z" fill="#338ffa"/></g></svg>